<svg version="1.1" id="Layer_1" xmlns="http://www.w3.org/2000/svg" width="340" height="340"  viewBox="0 0 483.51 308.36" xml:space="preserve"><style>.st0{opacity:.6;fill:#d1e3f0}.st1{opacity:.3;fill:#fff}.st2{fill:#d1e3f0}.st3{fill:#3753a4}.st4{fill:#2e72b9}.st5{fill:#23449c}.st6{fill:#fbac18}.st7{fill:#0d385a}.st8{fill:#0a121a}.st9{fill:#fff}.st10{fill:#f68b1f}.st11{fill:#055a87}.st12{fill:#ffcf4f}.st13,.st14{opacity:.5;fill:#fff}.st14{fill:#ffcf4f}.st15{opacity:.2;fill:#fff}.st16{fill:#f8a794}.st17{fill:#f5896d}.st18{fill:#2e5caa}.st19{fill:#0a162f}.st21{fill:#d65c48}</style><path class="st0" d="M382.14 180.28v.02a115.452 115.452 0 01-16.51 40.73c-21.82 33.62-60.43 55.31-103.35 55.31h-82.39c-33.46 0-65.38-13.34-88.38-36.8-.99-1.01-1.97-2.04-2.93-3.09-12.81-14.03-22.06-30.71-26.99-48.68-1.65-5.99-2.81-12.11-3.47-18.33-.01-.15-.03-.29-.05-.44-1.18-11.29-1.51-22.16-.91-32.42 1.33-22.84 7.25-42.68 18.71-57.47C89.2 61.9 110.03 51.52 139.83 51.2c1.24-.01 2.48-.01 3.74.01 82.12 1.2 79.39 37.61 146.65 53.59 15.37 3.65 34.4 6.24 58.94 7.09.55.02 1.1.05 1.63.08 34.46 2.14 38.17 33.53 31.35 68.31z"/><path class="st1" d="M350.8 111.97c-23.27 11.81-59.63 24.46-103.42 19.85-66.46-7-150.12-20.53-190.22 4.77 1.33-22.84 7.25-42.68 18.71-57.47 14.04-3.17 31.89-3.3 54.43 2.36 48.85 12.27 112.28 25.66 159.93 23.32 15.37 3.65 34.4 6.24 58.94 7.09.55.01 1.09.04 1.63.08zM382.14 180.3a115.452 115.452 0 01-16.51 40.73c-16.82 4.92-39.21 6.73-68.2.58-70.83-15.04-148.52-14.77-205.93 17.93-.99-1.01-1.97-2.04-2.93-3.09-12.81-14.03-22.06-30.71-26.99-48.68 20.06-9.24 70.3-27.18 135.06-12.81 68.3 15.15 146.6 27.2 185.5 5.34z"/><path class="st0" d="M2.77 16.5c0 .68.28 1.29.75 1.74.46.45 1.09.72 1.79.72h54.17c1.39 0 2.53-1.11 2.53-2.46 0-.68-.28-1.29-.74-1.74-.46-.45-1.09-.72-1.79-.72h-2.56c-1.01-2.28-3.35-3.88-6.06-3.88-1.83 0-3.48.72-4.68 1.89-1.6-2.63-4.54-4.4-7.91-4.4-.93 0-1.82.14-2.66.38-1.76-3.22-5.25-5.42-9.26-5.42-4.82 0-8.88 3.17-10.1 7.47-.89-.43-1.89-.68-2.95-.68-3.01 0-5.55 1.95-6.34 4.63H5.3c-1.39.01-2.53 1.12-2.53 2.47zM296.92 35.38c0 1.01-.42 1.93-1.11 2.59-.68.67-1.63 1.08-2.66 1.08h-80.7c-2.07 0-3.77-1.65-3.77-3.67 0-1.01.42-1.93 1.11-2.59.68-.67 1.62-1.08 2.66-1.08h3.81c1.51-3.4 4.99-5.78 9.03-5.78 2.73 0 5.19 1.08 6.98 2.82 2.38-3.92 6.76-6.55 11.78-6.55 1.38 0 2.71.2 3.96.57 2.62-4.8 7.81-8.07 13.8-8.07 7.18 0 13.23 4.72 15.05 11.13 1.32-.64 2.82-1.01 4.4-1.01 4.48 0 8.26 2.91 9.45 6.89h2.43c2.08 0 3.78 1.65 3.78 3.67z"/><path class="st2" d="M309.17 71.56l1.03-5.09-4.91-.94c0-1.25-.22-2.51-.65-3.72l4.04-2.64-2.97-4.31-3.87 2.53c-1.15-1.14-2.5-2.01-3.97-2.6l.96-4.77-5.23-1-.99 4.92c-1.07.06-2.14.26-3.19.6l-2.71-3.93-4.43 2.89 2.6 3.76a11.601 11.601 0 00-2.67 3.86l-4.29-.82-1.03 5.09 4.44.85c.07 1.33.38 2.66.94 3.93l-3.87 2.53 2.97 4.3 4.04-2.64c1.16.98 2.49 1.72 3.9 2.2l-.97 4.8 5.24 1 1.05-5.2c1.15-.12 2.29-.41 3.39-.87l2.6 3.76 4.43-2.89-2.72-3.93c.72-.81 1.32-1.69 1.78-2.64l5.06.97zm-13.15-2.04c-2.24 1.46-5.28.88-6.79-1.3-1.5-2.18-.91-5.14 1.33-6.6s5.28-.88 6.79 1.3c1.51 2.18.91 5.14-1.33 6.6zM51.99 98.37l1.03-5.09-4.91-.94c0-1.25-.22-2.51-.65-3.73l4.04-2.64-2.97-4.31-3.87 2.53a12.034 12.034 0 00-3.97-2.6l.96-4.77-5.23-1-.99 4.92c-1.07.06-2.14.26-3.19.6l-2.71-3.93-4.43 2.89 2.6 3.76a11.601 11.601 0 00-2.67 3.86l-4.29-.82-1.03 5.09 4.44.85c.08 1.33.38 2.66.94 3.93l-3.87 2.53 2.98 4.31 4.04-2.64c1.16.98 2.49 1.72 3.9 2.2l-.97 4.8 5.23 1 1.05-5.2c1.15-.12 2.29-.41 3.39-.87l2.6 3.76 4.43-2.89-2.72-3.93c.72-.81 1.32-1.69 1.78-2.64l5.06.97zm-13.15-2.04c-2.24 1.46-5.28.88-6.79-1.29-1.5-2.18-.91-5.14 1.33-6.6s5.28-.88 6.79 1.29c1.5 2.18.91 5.14-1.33 6.6zM270.44 51.98l.56-2.78-2.68-.51c0-.68-.12-1.37-.35-2.04l2.21-1.44-1.63-2.35-2.11 1.38c-.63-.62-1.37-1.1-2.17-1.42l.53-2.61-2.86-.55-.54 2.69c-.59.03-1.17.14-1.74.33l-1.48-2.15-2.42 1.58 1.42 2.06c-.64.61-1.13 1.33-1.46 2.11l-2.34-.45-.56 2.78 2.43.46c.04.73.21 1.45.51 2.15l-2.12 1.38 1.63 2.35 2.21-1.44c.63.54 1.36.94 2.13 1.2l-.53 2.62 2.86.55.57-2.84c.63-.07 1.25-.22 1.85-.48l1.42 2.06 2.42-1.58-1.48-2.15c.39-.44.72-.93.97-1.44l2.75.53zm-7.18-1.11c-1.22.8-2.89.48-3.71-.71-.82-1.19-.49-2.81.73-3.6 1.22-.8 2.88-.48 3.71.71.82 1.18.49 2.8-.73 3.6zM396.51 90.15l.56-2.78-2.68-.51c0-.68-.12-1.37-.35-2.04l2.21-1.44-1.63-2.35-2.11 1.38c-.63-.62-1.37-1.1-2.17-1.42l.53-2.61-2.87-.55-.54 2.69c-.59.03-1.17.14-1.74.33l-1.48-2.15-2.42 1.58 1.42 2.06c-.64.61-1.13 1.33-1.46 2.11l-2.35-.45-.56 2.78 2.43.46c.04.73.21 1.45.52 2.15l-2.11 1.38 1.63 2.35 2.21-1.44c.63.54 1.36.94 2.13 1.2l-.53 2.62 2.86.55.57-2.84c.63-.07 1.25-.22 1.85-.47l1.42 2.06 2.42-1.58-1.49-2.15c.4-.44.72-.93.97-1.44l2.76.52zm-7.19-1.11c-1.22.8-2.89.48-3.71-.71-.82-1.19-.49-2.81.73-3.61 1.22-.8 2.89-.48 3.71.71.82 1.19.5 2.81-.73 3.61z"/><path class="st0" d="M350.8 47.16c0 1.62.62 3.09 1.63 4.16 1 1.07 2.39 1.73 3.92 1.73h118.83c3.05 0 5.55-2.65 5.55-5.89 0-1.62-.62-3.09-1.64-4.16-1-1.07-2.39-1.73-3.92-1.73h-5.62c-2.22-5.46-7.34-9.28-13.3-9.28-4.01 0-7.64 1.73-10.27 4.52-3.5-6.29-9.96-10.51-17.35-10.51-2.03 0-3.99.33-5.83.92-3.87-7.7-11.51-12.94-20.32-12.94-10.58 0-19.48 7.57-22.16 17.86a13.828 13.828 0 00-6.48-1.62c-6.6 0-12.16 4.67-13.91 11.06h-3.58c-3.05-.01-5.55 2.64-5.55 5.88z"/><g><path class="st3" d="M367.58 258.21c10.45-12.08 20.64-25.3 26.32-34.83 7.43-12.45 10.61-22.53 9.45-29.96a.936.936 0 00-1.06-.76c-.51.07-.85.53-.78 1.03 2.02 13-10.44 35.17-36.04 64.16l2.11.36z"/><path class="st4" d="M399.58 211.75s6.27 4.45 13.88-6.57c0-.01-11.58-4.17-13.88 6.57zM395.95 217.63s4.92-5.84-5.98-13.85c0 0-4.92 11.01 5.98 13.85zM402.47 199.2s6.64-3.91-.89-14.99c.01 0-8.41 8.79.89 14.99zM389.03 229.67s4.35 6.25 15.35-1.62c.01 0-9.45-7.73-15.35 1.62zM384.41 235.12s5.88-4.92-3.42-14.64c-.01 0-6.81 10.02 3.42 14.64zM378.84 243.19s4.23 6.33 15.38-1.33c0-.01-9.3-7.91-15.38 1.33z"/><g><path class="st3" d="M214.59 53.18c-11.7 1.85-12.8 12.83-21.92 11.46-9.12-1.38-16.8 3.34-16.15 11.23.66 7.89 1.6 13.67-7.97 16.03-9.57 2.36-15.6 12.97-9 18.29 1.64 1.33 3.42 2.76 5.17 4.16.48.38.95.77 1.42 1.14.11.09.21.18.32.26 7.03 5.64 17.37 5.36 23.88-.84 2.63-2.51 4.35-5.7 3.7-9.63-2.02-12.33 9.7-6.51 15.84-12.93 7.07-7.4 1.22-15.24 7.06-20.18 8.13-6.87 9.36-20.83-2.35-18.99z"/><path class="st5" d="M207.84 66.74l-43.12 47.62c.48.38.95.77 1.42 1.14l43.08-47.58c.34-.37.3-.94-.08-1.26a.938.938 0 00-1.3.08z"/><g><path class="st4" d="M171.96 38.34c-9.17 7.31-4.44 17.35-13.04 20.61-8.6 3.26-12.81 11.09-8.16 17.6 4.65 6.51 8.44 11.04 1.39 17.76-7.05 6.71-6.79 18.83 1.67 20.21 2.1.35 4.38.72 6.62 1.08.61.1 1.22.2 1.82.29.14.02.28.05.42.07 8.99 1.45 17.79-3.84 20.21-12.38.98-3.46.82-7.05-1.77-10.14-8.11-9.67 5.03-10.36 7.02-18.91 2.29-9.85-6.82-13.77-4.32-20.9 3.46-9.93-2.69-22.6-11.86-15.29z"/><path class="st3" d="M173.12 53.36l-12.69 62.23c.61.1 1.22.2 1.82.29l12.68-62.17c.1-.48-.23-.96-.72-1.05-.5-.1-.99.21-1.09.7z"/></g></g><g><path class="st3" d="M63.88 210.08c10.42 5.5 7.72 16.23 16.79 17.86 9.07 1.63 14.72 8.55 11.42 15.79-3.31 7.24-6.16 12.39 2.07 17.69 8.22 5.31 10.31 17.25 2.27 20.16-2 .72-4.17 1.5-6.29 2.27-.58.21-1.16.42-1.73.62-.13.05-.26.1-.39.14-8.55 3.06-18.22-.52-22.25-8.47-1.63-3.22-2.17-6.77-.22-10.28 6.1-10.98-6.94-9.26-10.55-17.29-4.15-9.25 4.03-14.77.2-21.32-5.32-9.11-1.73-22.68 8.68-17.17z"/><path class="st5" d="M65.64 225.04l24.49 58.8c-.58.21-1.16.42-1.73.62l-24.47-58.75c-.19-.46.04-.98.51-1.17a.934.934 0 011.2.5z"/><g><path class="st4" d="M34.51 233.26c11.75 1.52 13.18 12.47 22.25 10.84 9.07-1.63 16.9 2.87 16.47 10.78-.43 7.91-1.19 13.71 8.44 15.8 9.63 2.1 15.97 12.53 9.53 18.04-1.6 1.37-3.34 2.85-5.04 4.3l-1.39 1.18c-.1.09-.21.18-.32.27-6.86 5.84-17.2 5.85-23.89-.17-2.71-2.44-4.52-5.57-3.99-9.53 1.65-12.38-9.89-6.23-16.21-12.48-7.28-7.2-1.67-15.2-7.65-19.98-8.31-6.64-9.95-20.57 1.8-19.05z"/><path class="st3" d="M41.66 246.63l44.5 46.4-1.39 1.18-44.46-46.36a.874.874 0 01.05-1.27c.37-.33.95-.31 1.3.05z"/></g></g><g><path class="st3" d="M82.07 113.17C74.8 99.05 68.06 83.89 64.82 73.34c-4.24-13.79-4.92-24.31-2.01-31.28.19-.46.73-.68 1.21-.5.47.19.7.71.51 1.18-5.08 12.18 1.72 36.57 19.67 70.56l-2.13-.13z"/><path class="st4" d="M62.1 60.74s-7.16 2.91-11.93-9.53c0-.01 12.26-1.43 11.93 9.53zM64.21 67.28s-3.38-6.79 9.13-12.11c0 0 2.15 11.82-9.13 12.11zM62.28 47.88s-5.52-5.31 4.45-14.38c.01.01 6.09 10.46-4.45 14.38zM68.05 80.56s-5.73 5.09-14.54-5.05c0 0 11.04-5.38 14.54 5.05zM71.25 86.9s-4.54-6.12 6.84-13.46c-.01 0 4.21 11.28-6.84 13.46zM74.73 96.01s-5.63 5.2-14.64-4.78c0 0 10.94-5.58 14.64 4.78z"/></g></g><g><path class="st4" d="M342.07 103.62c-2.72 0-4.93-2.15-4.93-4.79s2.21-4.79 4.93-4.79c2.72 0 4.93 2.15 4.93 4.79s-2.21 4.79-4.93 4.79zm0-8.08c-1.87 0-3.38 1.48-3.38 3.29s1.52 3.29 3.38 3.29c1.86 0 3.38-1.48 3.38-3.29 0-1.82-1.52-3.29-3.38-3.29z"/><path class="st6" d="M359.81 120.43c-2.72 0-4.93-2.15-4.93-4.79s2.21-4.79 4.93-4.79c2.72 0 4.93 2.15 4.93 4.79s-2.21 4.79-4.93 4.79zm0-8.08c-1.87 0-3.38 1.48-3.38 3.29s1.52 3.29 3.38 3.29c1.87 0 3.38-1.48 3.38-3.29.01-1.82-1.51-3.29-3.38-3.29z"/><path class="st4" d="M365.9 136a.76.76 0 01-.77-.75v-3.31c0-.42.35-.75.77-.75.43 0 .77.34.77.75v3.31c.01.42-.34.75-.77.75zM365.9 141.8a.76.76 0 01-.77-.75v-3.32c0-.42.35-.75.77-.75.43 0 .77.34.77.75v3.32c.01.42-.34.75-.77.75z"/><g><path class="st4" d="M370.69 137.24h-3.06a.76.76 0 01-.77-.75c0-.42.35-.75.77-.75h3.06c.43 0 .77.34.77.75 0 .42-.34.75-.77.75zM364.18 137.24h-3.06a.76.76 0 01-.77-.75c0-.42.35-.75.77-.75h3.06c.43 0 .77.34.77.75 0 .42-.34.75-.77.75z"/></g><g><path class="st6" d="M338.69 117.43a.76.76 0 01-.77-.75v-3.32c0-.42.35-.75.77-.75.43 0 .77.34.77.75v3.32c0 .41-.35.75-.77.75zM338.69 123.23a.76.76 0 01-.77-.75v-3.31c0-.42.35-.75.77-.75.43 0 .77.34.77.75v3.31c0 .41-.35.75-.77.75z"/><g><path class="st6" d="M343.47 118.67h-3.06a.76.76 0 01-.77-.75c0-.42.35-.75.77-.75h3.06c.43 0 .77.34.77.75.01.41-.34.75-.77.75zM336.96 118.67h-3.06a.76.76 0 01-.77-.75c0-.42.35-.75.77-.75h3.06c.43 0 .77.34.77.75.01.41-.34.75-.77.75z"/></g></g><g><path class="st4" d="M104.2 43.45c-2.72 0-4.93-2.15-4.93-4.79s2.21-4.79 4.93-4.79c2.72 0 4.93 2.15 4.93 4.79s-2.21 4.79-4.93 4.79zm0-1.51c1.87 0 3.38-1.47 3.38-3.29s-1.52-3.29-3.38-3.29c-1.86 0-3.38 1.48-3.38 3.29s1.52 3.29 3.38 3.29z"/><path class="st6" d="M115.95 63.12c-2.72 0-4.93-2.15-4.93-4.79s2.21-4.79 4.93-4.79c2.72 0 4.93 2.15 4.93 4.79s-2.22 4.79-4.93 4.79zm0-1.51c1.86 0 3.38-1.48 3.38-3.29s-1.52-3.29-3.38-3.29c-1.87 0-3.38 1.47-3.38 3.29s1.51 3.29 3.38 3.29z"/><path class="st4" d="M136.58 66.51a.76.76 0 00-.77-.75h-3.41a.76.76 0 00-.77.75c0 .42.35.75.77.75h3.41c.43 0 .77-.33.77-.75zM142.55 66.51a.76.76 0 00-.77-.75h-3.41a.76.76 0 00-.77.75c0 .42.35.75.77.75h3.41c.43 0 .77-.33.77-.75z"/><g><path class="st4" d="M137.86 71.16v-2.98c0-.42-.35-.75-.77-.75s-.77.34-.77.75v2.98c0 .42.35.75.77.75s.77-.33.77-.75zM137.86 64.84v-2.98c0-.42-.35-.75-.77-.75s-.77.34-.77.75v2.98c0 .42.35.75.77.75s.77-.34.77-.75z"/></g><g><path class="st6" d="M90.27 53.53a.76.76 0 00-.77-.75h-3.41a.76.76 0 00-.77.75c0 .41.35.75.77.75h3.41c.42.01.77-.33.77-.75zM96.23 53.53a.76.76 0 00-.77-.75h-3.41a.76.76 0 00-.77.75c0 .41.35.75.77.75h3.41c.43.01.77-.33.77-.75z"/><g><path class="st6" d="M91.54 58.19v-2.98a.76.76 0 00-.77-.75.76.76 0 00-.77.75v2.98c0 .41.35.75.77.75.43 0 .77-.34.77-.75zM91.54 51.86v-2.98a.76.76 0 00-.77-.75.76.76 0 00-.77.75v2.98c0 .41.35.75.77.75.43 0 .77-.34.77-.75z"/></g></g></g></g><g><path class="st7" d="M191.78 93.08v195.94c0 6.14-5.12 11.12-11.44 11.12H79.97c-3.17 0-6.04-1.26-8.12-3.28-2.05-2.01-3.32-4.78-3.32-7.84V93.08c0-6.14 5.12-11.12 11.44-11.12h100.37c1.87 0 3.63.43 5.19 1.21 3.71 1.84 6.25 5.59 6.25 9.91z"/><path class="st8" d="M191.78 93.08v195.94c0 6.14-5.12 11.12-11.44 11.12H79.97c-3.17 0-6.04-1.26-8.12-3.28L185.53 83.17c3.71 1.84 6.25 5.59 6.25 9.91zM68.53 143.1H66.5c-1.19 0-2.16-.94-2.16-2.1v-21.69c0-1.16.97-2.1 2.16-2.1h2.03v25.89zM191.78 136.33h1.66c.98 0 1.77-.77 1.77-1.72v-17.65c0-.95-.79-1.71-1.77-1.71h-1.66v21.08zM68.53 172.5H66.5c-1.19 0-2.16-.94-2.16-2.1v-21.69c0-1.16.97-2.1 2.16-2.1h2.03v25.89z"/><g><path class="st9" d="M74.24 283.22V98.89c0-6.29 5.24-11.38 11.71-11.38h88.41c6.47 0 11.71 5.09 11.71 11.38v184.32c0 6.29-5.24 11.38-11.71 11.38H85.95c-6.47.01-11.71-5.09-11.71-11.37z"/><path class="st0" d="M167.16 114.45H93.15c-1.12 0-2.03-.88-2.03-1.97v-3.71c0-1.09.91-1.97 2.03-1.97h74.01c1.12 0 2.03.88 2.03 1.97v3.71c0 1.09-.91 1.97-2.03 1.97zM117.05 132.49H82.94c-.81 0-1.47-.64-1.47-1.43v-2.69c0-.79.66-1.43 1.47-1.43h34.11c.81 0 1.47.64 1.47 1.43v2.69c0 .79-.66 1.43-1.47 1.43zM117.05 143.15H82.94c-.81 0-1.47-.64-1.47-1.43v-2.69c0-.79.66-1.43 1.47-1.43h34.11c.81 0 1.47.64 1.47 1.43v2.69c0 .79-.66 1.43-1.47 1.43zM117.05 152.92H82.94c-.81 0-1.47-.64-1.47-1.43v-2.69c0-.79.66-1.43 1.47-1.43h34.11c.81 0 1.47.64 1.47 1.43v2.69c0 .79-.66 1.43-1.47 1.43z"/><path class="st6" d="M118.52 192.27h21.97v91.5h-21.97z"/><path class="st10" d="M118.52 259.64c7.78-2.34 15.08-6.53 21.97-11.03v35.16h-21.97v-24.13z"/><g><path class="st6" d="M82.62 217.69h21.96v66.07H82.62z"/><path class="st10" d="M100.52 261.18c1.37.19 2.72.31 4.06.36v22.22H82.62v-22.01c3.89-1.24 9.57-1.75 17.9-.57z"/></g><g><path class="st6" d="M154.42 164.93h21.97v118.84h-21.97z"/><path class="st10" d="M176.39 230.06v53.71h-21.97v-44.59c7.81-5.16 15.09-9.15 21.97-9.12z"/></g><path class="st4" d="M175.57 129.71l-19.99 4.17 5.36 5.12-30.6 30.33-10.74-10.24L79 199.33l5.35 5.1 35.35-35.04 10.74 10.24 35.85-35.53 5.37 5.12z"/></g><g><path class="st7" d="M161.76 97.31h-63.2c-1.64 0-2.99-1.31-2.99-2.91v-5.47c0-1.6 1.35-2.91 2.99-2.91h63.2c1.64 0 2.99 1.31 2.99 2.91v5.47c-.01 1.6-1.35 2.91-2.99 2.91z"/><path class="st8" d="M147.28 92.32h-39.99c-.4 0-.74-.32-.74-.71v-1.34c0-.39.33-.71.74-.71h39.99c.4 0 .74.32.74.71v1.34a.74.74 0 01-.74.71z"/><path class="st11" d="M158.11 90.84c0 .92-.77 1.66-1.71 1.66s-1.71-.74-1.71-1.66c0-.92.77-1.66 1.71-1.66.95 0 1.71.74 1.71 1.66z"/></g></g><g><path class="st4" d="M384.93 192.31c-.82-.05-1.65-.06-2.47.01-1.66.14-3.33.54-4.89 1.25a14.11 14.11 0 00-5.15 3.98c-.33-.13-.67-.25-1-.37-.83-.27-1.68-.53-2.56-.71-.43-.1-.89-.16-1.34-.24-.46-.05-.91-.11-1.37-.13-.24-.02-.49-.02-.73-.02-1.62-.02-3.28.24-4.86.82-.9.33-1.77.77-2.57 1.32-.4.27-.79.57-1.16.9-.18.16-.36.34-.54.52-.09.09-.18.18-.27.29-.04.05-.09.1-.14.16l-.07.09-.1.13 3.45 2.41.01-.01.06-.06.14-.14a6.558 6.558 0 011.05-.83c.51-.33 1.08-.61 1.67-.82 1.18-.43 2.49-.59 3.83-.51.26.01.53.04.8.07.07.01.14.02.22.02.34.06.68.1 1.02.18.68.13 1.37.34 2.04.56.06.02.12.04.18.07-.62 1.37-1.06 2.81-1.31 4.29-.29 1.67-.35 3.39-.1 5.13.14.87.34 1.75.7 2.62.18.43.39.86.65 1.29.26.42.56.84.94 1.23.37.39.81.74 1.31 1.04.13.07.25.15.39.21.13.06.27.12.4.18.24.08.48.16.73.24.99.29 2.12.39 3.23.19 1.12-.2 2.18-.72 3.02-1.42.84-.7 1.47-1.58 1.91-2.5.86-1.85.99-3.87.63-5.73-.18-.94-.5-1.83-.9-2.68l-.32-.63c-.11-.2-.24-.4-.36-.6l-.19-.3-.2-.28-.41-.56c-1.1-1.34-2.41-2.44-3.82-3.34-.1-.06-.2-.13-.3-.19-.1-.06-.19-.12-.29-.17l-.29-.16-.59-.32a.3.3 0 00-.08-.04c1-1.29 2.23-2.42 3.66-3.31 1.25-.78 2.64-1.38 4.12-1.82.74-.21 1.5-.39 2.28-.53.39-.07.78-.14 1.18-.19.4-.07.79-.1 1.2-.16-.81-.25-1.62-.37-2.44-.43zM373 202.39l.47.24.23.12c.08.04.15.09.22.13.26.15.51.31.75.48.89.6 1.68 1.29 2.34 2.06l.29.38.15.19.13.2c.09.13.18.26.26.4l.22.41c.28.55.51 1.13.64 1.72.26 1.17.2 2.4-.24 3.4-.22.5-.52.94-.87 1.26-.36.33-.77.54-1.22.64-.45.1-.96.09-1.51-.04-.13-.04-.27-.08-.41-.12-.1-.04-.19-.07-.29-.12-.19-.1-.37-.23-.56-.4-.18-.17-.35-.39-.52-.62-.16-.24-.31-.5-.43-.79-.26-.57-.45-1.2-.59-1.86-.27-1.33-.3-2.75-.12-4.15.15-1.23.45-2.45.9-3.61.06.03.11.05.16.08z"/><path class="st3" d="M366.7 200.37c-.27-.03-.53-.06-.8-.07-1.34-.07-2.65.08-3.83.51-.59.22-1.15.49-1.67.82-.26.17-.5.35-.73.54-.11.1-.22.19-.32.29-.04.05-.1.1-.14.14l-.06.06-.02.02s0-.01.01-.01l-3.45-2.41.1-.13.07-.09c.05-.06.09-.11.14-.16.09-.1.18-.19.27-.29.18-.18.36-.36.54-.52.37-.33.75-.63 1.16-.9.8-.54 1.67-.99 2.57-1.32 1.57-.58 3.24-.83 4.86-.82.46 1.25.97 2.79 1.3 4.34zM376.45 199.56c-1.14 1.17-1.6 2.72-1.78 3.81-.25-.17-.5-.33-.75-.48-.08-.04-.15-.09-.22-.13l-.23-.12-.47-.24c-.05-.03-.1-.05-.15-.08.71-2.06 2.06-3.64 2.06-3.64.02.01.05.03.08.04l.59.32.29.16c.1.05.19.12.29.17.09.06.19.12.29.19zM228.56 271.99l-3.42 18.2-2.24 11.94c-11.28 4.37-21.87-2.83-21.87-2.83v-36.41l27.53 9.1z"/><path class="st5" d="M201.02 262.89l27.54 9.1-3.42 18.2c-9.39-2.98-17.81-7.79-24.11-12.07v-15.23z"/><path class="st3" d="M322.99 262.89v36.41s-10.59 7.19-21.87 2.83l-2.21-11.77-3.45-18.37 27.53-9.1z"/><path class="st5" d="M322.99 262.89v16.91c-6.72 4.98-15.06 8.35-24.08 10.56l-3.45-18.37 27.53-9.1z"/><path class="st4" d="M362.49 204.91c0 6.26-.84 12.35-2.42 18.2v.01c-9.78 36.13-48.06 63.08-93.78 63.08-44.29 0-81.59-25.29-92.78-59.71a68.578 68.578 0 01-2.55-10.56c-.58-3.6-.88-7.28-.88-11.01 0-44.89 43.08-81.29 96.21-81.29 14.95 0 29.11 2.88 41.73 8.02h.01c32.22 13.13 54.46 41 54.46 73.26z"/><path class="st3" d="M360.06 223.12c-9.78 36.13-48.06 63.08-93.78 63.08-44.29 0-81.59-25.29-92.78-59.71v-8.78s30.08 55.32 94.48 58.03c63.9 2.68 91.66-51.74 92.08-52.62z"/><g><path class="st4" d="M173.5 183.91v42.57h-19.03c-4.29-14.32-4.36-28.51 0-42.57h19.03z"/><path class="st3" d="M154.47 226.48c-4.29-14.32-4.36-28.51 0-42.57 0 0 6.85 21 0 42.57z"/><path class="st5" d="M155.1 205.29c0 3.91-.33 7.08-.74 7.08s-.74-3.17-.74-7.08.33-7.08.74-7.08c.41-.01.74 3.16.74 7.08z"/></g><g><path class="st4" d="M223.65 132.68s-4.98 7.66-14.95 11.47a31.62 31.62 0 01-8.51 1.98l-8.64-30.28c.3.1 22.83 7.68 32.1 16.83z"/><path class="st3" d="M208.7 144.15a31.62 31.62 0 01-8.51 1.98l-8.64-30.28c.22.2 14.65 14.79 17.15 28.3z"/></g><g><path class="st5" d="M299.04 131.79l-.42 2.12-.72 3.68c-31.29-8.8-63.06-1.18-63.38-1.1l-.64-3.69-.37-2.15c1.34-.32 33.14-7.96 65.53 1.14z"/><path class="st3" d="M298.63 133.91l-.73 3.69c-1.46-.41-2.92-.79-4.38-1.13-2.48-.58-4.96-1.07-7.41-1.46-3.54-.58-7.04-.98-10.44-1.24-.18-.01-.37-.03-.55-.04-1.53-.11-3.03-.19-4.51-.25h-.17c-1.71-.07-3.39-.1-5.03-.1H264.48c-3.99.01-7.74.19-11.14.45l-.37.03c-1.1.08-2.17.18-3.19.28-.08.01-.15.02-.23.02-1.23.13-2.4.26-3.5.4-3.07.38-5.63.8-7.56 1.15-2.49.45-3.91.79-3.97.81l-.57-3.28c.49-.12 1.39-.32 2.66-.59.15-.03.31-.06.47-.1 1.67-.34 3.88-.75 6.55-1.15 2.76-.41 6.01-.82 9.64-1.13.07-.01.14-.01.22-.02.34-.03.69-.06 1.04-.08.68-.05 1.39-.1 2.1-.15.12-.01.23-.01.35-.02.09-.01.18-.01.27-.02 3.34-.2 6.93-.29 10.7-.24.3 0 .6.01.91.01 1.4.03 2.82.08 4.26.16.87.04 1.75.1 2.63.16.86.06 1.73.13 2.61.22.19.01.38.04.57.05 3.2.31 6.48.75 9.79 1.34 2.29.41 4.61.9 6.93 1.47 1.01.23 1.99.49 2.98.76z"/></g><g><path class="st12" d="M295.68 133.14c-.02.04-.05.09-.08.13-.62 1.1-1.32 2.17-2.08 3.19-2.48-.58-4.96-1.07-7.41-1.46-3.54-.58-7.04-.98-10.44-1.24-.18-.01-.37-.03-.55-.04-1.53-.11-3.03-.19-4.51-.25h-.17c-1.71-.07-3.39-.1-5.03-.1H264.48c-3.99.01-7.74.19-11.14.45l-.37.03c-1.1.08-2.17.18-3.19.28-.08.01-.15.02-.23.02-1.23.13-2.4.26-3.5.4-3.07.38-5.63.8-7.56 1.15-.63-.91-1.21-1.84-1.74-2.81-.04-.07-.08-.15-.12-.23 0-.01-.01-.01-.01-.02 0 0 0-.01-.01-.01-.11-.21-.23-.43-.34-.64-.03-.07-.07-.13-.1-.2-.12-.24-.23-.48-.35-.72a31.734 31.734 0 01-3.01-13.56c.01-17.43 14.22-31.85 32.28-32.49 4.44-.15 8.72.54 12.65 1.94.23.09.47.17.7.26.04.01.08.03.12.05.22.09.45.17.67.26.13.05.26.11.39.16.01 0 .02.01.03.01.11.04.23.09.34.14a33.47 33.47 0 018.73 5.55 32.96 32.96 0 016.58 7.9c1.42 2.39 2.53 4.97 3.3 7.7.56 1.99.93 4.06 1.08 6.19.04.4.06.81.07 1.21.22 6.05-1.28 11.79-4.07 16.75z"/><path class="st13" d="M298.6 108.97l-5.68 5.99-.22.24-14.31 15.08-3.27 3.45c-1.53-.11-3.03-.19-4.51-.25h-.17c-1.71-.07-3.39-.1-5.03-.1H264.48l.29-.3.16-.16 3.04-3.17L278.29 119l.38-.4 11-11.45.76-.8 4.86-5.06c1.43 2.37 2.54 4.96 3.31 7.68zM279.99 87.83l-43.23 45.05c-.33-.6-.64-1.2-.93-1.82l41.92-44.11c.75.26 1.5.56 2.24.88zM290.37 94.92l-4.58 4.81-1.14 1.2-8.32 8.74-1.29 1.35-.26.27-.92.96-1.76 1.85-1.09 1.14-5.07 5.33-1.15 1.21-1.96 2.06-1.1 1.16-4.66 4.89-.07.08-.89.93-2.76 2.9-.37.03c-1.1.08-2.17.18-3.19.28l3.72-3.89 1.21-1.27.56-.58 3.95-4.14.97-1.02 1.88-1.96 1.1-1.15 5.09-5.32 1.16-1.21 1.99-2.08 1.04-1.08 4.52-4.73.23-.24 5.71-5.97 1.24-1.3 4.58-4.8c.55.5 1.1 1.02 1.63 1.55z"/><path class="st10" d="M293.05 117.8c-.05 5.09-1.62 9.85-4.3 13.87-.79 1.18-1.67 2.29-2.64 3.33-3.54-.58-7.04-.98-10.44-1.24-.18-.01-.37-.03-.55-.04-1.53-.11-3.03-.19-4.51-.25h-.17c-1.71-.07-3.39-.1-5.03-.1H264.48c-3.99.01-7.74.19-11.14.45l-.37.03c-1.1.08-2.17.18-3.19.28-.08.01-.15.02-.23.02-1.23.13-2.4.26-3.5.4-.16-.18-.32-.36-.47-.54l-.32-.38-.02-.02c-.11-.14-.23-.28-.34-.43-.02-.02-.04-.05-.06-.07-.11-.14-.21-.28-.32-.42-.22-.29-.43-.59-.63-.9-.09-.13-.17-.26-.25-.39-.03-.05-.07-.1-.1-.15-.07-.11-.15-.23-.22-.35-.51-.82-.97-1.68-1.39-2.55-.08-.17-.15-.33-.23-.5-.01-.03-.03-.06-.04-.08-.06-.14-.12-.27-.18-.41a3.06 3.06 0 01-.11-.27c-.07-.16-.13-.32-.19-.48-.07-.18-.14-.37-.21-.55-.04-.1-.07-.2-.11-.3l-.03-.11a.487.487 0 00-.04-.11l-.21-.67c-.01-.02-.01-.03-.02-.05-.07-.23-.13-.46-.19-.69a6.78 6.78 0 01-.11-.43c-.07-.3-.15-.6-.21-.9-.02-.11-.05-.22-.07-.33-.03-.14-.06-.28-.08-.43-.01-.08-.03-.16-.04-.24-.02-.13-.05-.25-.06-.38-.02-.1-.03-.21-.04-.31-.03-.21-.06-.42-.08-.64-.03-.25-.06-.5-.08-.76-.03-.39-.06-.79-.07-1.19-.53-14.34 11.04-26.41 25.78-26.93 2.53-.09 5 .17 7.35.74.81.19 1.6.42 2.38.69 3.38 1.14 6.45 2.93 9.07 5.21.57.5 1.12 1.02 1.65 1.57 1.88 1.94 3.45 4.16 4.65 6.59 1.3 2.65 2.17 5.56 2.48 8.62.06.55.09 1.09.12 1.65.04.35.04.74.04 1.14z"/><path class="st6" d="M293.05 117.8c-.05 5.09-1.62 9.85-4.3 13.87-.79 1.18-1.67 2.29-2.64 3.33-3.54-.58-7.04-.98-10.44-1.24-.18-.01-.37-.03-.55-.04-1.53-.11-3.03-.19-4.51-.25h-.17c-1.71-.07-3.39-.1-5.03-.1H264.48c-3.99.01-7.74.19-11.14.45l-.37.03c-1.1.08-2.17.18-3.19.28-.08.01-.15.02-.23.02-1.23.13-2.4.26-3.5.4-.16-.18-.32-.36-.47-.54l-.32-.38-.02-.02c-.11-.14-.23-.28-.34-.43-.02-.02-.04-.05-.06-.07-.11-.14-.21-.28-.32-.42-.22-.29-.43-.59-.63-.9-.09-.13-.17-.26-.25-.39-.03-.05-.07-.1-.1-.15-.07-.11-.15-.23-.22-.35-.51-.82-.97-1.68-1.39-2.55-.08-.17-.15-.33-.23-.5-.01-.03-.03-.06-.04-.08-.06-.14-.12-.27-.18-.41a3.06 3.06 0 01-.11-.27c-.07-.16-.13-.32-.19-.48-.07-.18-.14-.37-.21-.55-.04-.11-.07-.21-.11-.31-.01-.03-.02-.07-.04-.11a.487.487 0 00-.04-.11l-.21-.67c-.01-.02-.01-.03-.02-.05-.07-.23-.13-.46-.19-.69a6.78 6.78 0 01-.11-.43c-.07-.3-.15-.6-.21-.9-.02-.11-.05-.22-.07-.33-.03-.14-.06-.28-.08-.43-.01-.08-.03-.16-.04-.24-.02-.13-.05-.25-.06-.38-.02-.1-.03-.21-.04-.31-.03-.21-.06-.42-.08-.64-.03-.25-.06-.5-.08-.76.14-13.81 11.47-25.24 25.8-25.74 1.82-.06 3.59.05 5.32.33.02 0 .03.01.05.01.2.03.41.07.61.11.22.04.44.08.66.13.42.08.83.18 1.25.29.01 0 .02.01.04.01 3.48.91 6.69 2.5 9.47 4.61.03.02.05.04.08.06.57.44 1.13.9 1.66 1.38.03.03.06.05.09.09 1.98 1.8 3.68 3.88 5.03 6.2.11.18.21.37.31.56 1.28 2.32 2.2 4.84 2.7 7.51l.12.66c.14.59.22 1.24.27 1.89z"/><path class="st14" d="M292.81 115.86l-13.86 14.47-3.29 3.43c-.18-.01-.37-.03-.55-.04-1.53-.11-3.03-.19-4.51-.25h-.17c-1.71-.07-3.39-.1-5.03-.1l3.47-3.62 9.77-10.21.29-.3 11.06-11.55c1.28 2.32 2.2 4.84 2.7 7.51.05.22.08.44.12.66zM273.34 94.8l-31.63 33.03c-.34-.75-.64-1.53-.9-2.32l29.93-31.25c.88.13 1.75.32 2.6.54zM284.56 100.85l-8.08 8.44-1.28 1.34-.57.6-.93.97-1.79 1.87-1.1 1.15-5.1 5.33-1.15 1.21-1.97 2.06-1.09 1.14-4.66 4.87-.17.18-.78.82-2.89 3.02c-1.1.08-2.17.18-3.19.28-.08.01-.15.02-.23.02l3.72-3.89 1.3-1.36.84-.87 3.67-3.84.97-1.01 1.87-1.95 1.1-1.14 5.09-5.32 1.16-1.21 2-2.09 1.04-1.09 4.54-4.74.44-.45 5.53-5.77c.03.02.05.04.08.06.54.43 1.09.89 1.63 1.37z"/></g><g><path class="st6" d="M387.98 295.78v.09c0 1.11-.61 2.17-1.73 3.16-.27.24-.58.48-.91.71-.93.65-2.09 1.27-3.45 1.84-.29.13-.6.25-.91.37-1.05.4-2.21.78-3.45 1.13-.3.08-.6.17-.91.25-1.09.28-2.24.55-3.45.78-.3.06-.6.12-.91.17-1.11.2-2.26.39-3.45.55l-.91.12c-1.12.14-2.27.27-3.45.37-.3.03-.61.05-.91.08-1.13.09-2.28.16-3.45.22-.3.01-.61.03-.91.04-1.13.04-2.28.07-3.45.07H354.82c-1.17 0-2.32-.02-3.45-.06l-.91-.03c-.86-.04-1.71-.09-2.55-.14-.3-.02-.6-.04-.89-.07-.31-.02-.61-.05-.91-.07-1.18-.1-2.33-.22-3.45-.36l-.91-.12c-.71-.1-1.41-.2-2.1-.31-.46-.07-.91-.15-1.35-.23-.31-.05-.61-.11-.91-.17a55.566 55.566 0 01-4.09-.94c-.09-.02-.18-.05-.27-.07-.49-.13-.97-.27-1.44-.42-.7-.22-1.38-.44-2.01-.68-.31-.12-.62-.23-.91-.35-1.16-.47-2.19-.98-3.06-1.51-.13-.08-.26-.16-.39-.25-.16-.1-.31-.21-.46-.31-.16-.11-.31-.23-.46-.35-1.32-1.07-2.03-2.22-2.03-3.42 0-.09 0-.17.01-.25v-6.82h2.93l3.45-.01H342.65l3.45-.01H360.09l3.45-.01h.91l3.45-.01H381.88l3.45-.01h2.62l.03 7.03z"/><path class="st10" d="M325.22 288.8v11.16c-.16-.1-.31-.21-.46-.31-.16-.11-.31-.23-.46-.35v-10.5h.92zM329.58 288.79v13.29c-.31-.12-.62-.23-.91-.35V288.8l.91-.01zM333.93 288.78v14.63c-.21-.05-.43-.11-.64-.17-.09-.02-.18-.05-.27-.07v-14.39h.91zM338.3 288.78v15.57c-.31-.05-.61-.11-.91-.17v-15.4h.91zM342.66 288.77V305l-.91-.12v-16.11h.91zM347.02 288.76v16.67c-.31-.02-.61-.05-.91-.07v-16.6h.91zM351.38 288.76v16.92l-.91-.03v-16.88l.91-.01zM355.74 288.75v16.98H354.83v-16.98h.91zM360.1 288.75v16.88c-.3.01-.61.03-.91.04v-16.92h.91zM364.46 288.74v16.59c-.3.03-.61.05-.91.08v-16.67h.91zM368.82 288.73v16.11l-.91.12v-16.23h.91zM373.18 288.73v15.39c-.3.06-.6.12-.91.17v-15.56h.91zM377.54 288.72v14.37c-.3.08-.6.17-.91.25v-14.61l.91-.01zM381.9 288.72v12.88c-.29.13-.6.25-.91.37v-13.24l.91-.01zM386.26 288.71v10.33c-.27.24-.58.48-.91.71v-11.04h.91z"/><g><path class="st12" d="M387.98 288.79c0 5.01-14.7 9.07-32.85 9.07-2.48 0-4.89-.08-7.22-.22-2.92-.18-5.69-.47-8.26-.85a71.19 71.19 0 01-6.35-1.22c-.59-.14-1.16-.29-1.71-.45-2.41-.68-4.44-1.47-5.98-2.34-.3-.17-.58-.34-.85-.52-1.6-1.07-2.49-2.24-2.49-3.47 0-.11.01-.22.03-.34.64-4.85 15.09-8.73 32.82-8.73 4.36 0 8.53.23 12.34.66.74.08 1.46.17 2.17.27 3.09.42 5.91.97 8.36 1.63.54.14 1.06.29 1.56.45 1.79.55 3.34 1.16 4.6 1.82 1.3.68 2.3 1.41 2.95 2.17.47.56.76 1.14.84 1.73.03.12.04.23.04.34z"/><path class="st1" d="M387.11 286.72l-39.2 10.92c-2.92-.18-5.69-.47-8.26-.85l44.51-12.25c1.3.69 2.31 1.41 2.95 2.18zM369.63 280.65l-44.02 12.12c-.3-.17-.58-.34-.85-.52l42.69-11.88c.75.1 1.47.19 2.18.28zM379.56 282.73l-46.25 12.84c-.59-.14-1.16-.29-1.71-.45l46.4-12.84c.53.15 1.05.3 1.56.45z"/><path class="st10" d="M381.38 288.79c0 .11-.01.22-.03.33-.63 3.84-12.15 6.92-26.23 6.92-14.07 0-25.59-3.07-26.23-6.92-.01-.11-.03-.22-.03-.33 0-4 11.78-7.25 26.25-7.25 14.5 0 26.27 3.26 26.27 7.25z"/><path class="st6" d="M381.36 289.13c-.63 3.84-12.15 6.92-26.23 6.92h-.94a88.17 88.17 0 01-8.91-.52c-2.77-.31-5.31-.75-7.51-1.28-.56-.14-1.1-.28-1.62-.43-2.35-.68-4.23-1.49-5.49-2.38-.3-.21-.57-.43-.8-.66-.54-.53-.87-1.07-.96-1.64.63-3.84 12.15-6.92 26.23-6.92 1.78 0 3.52.05 5.2.14.86.05 1.7.11 2.53.18 3.38.29 6.47.76 9.12 1.37.57.13 1.13.27 1.66.42 2.06.57 3.79 1.23 5.08 1.96 1.26.71 2.11 1.49 2.47 2.3a2 2 0 01.17.54z"/><path class="st15" d="M381.19 288.58l-27 7.45a88.17 88.17 0 01-8.91-.52l33.44-9.23c1.26.71 2.11 1.49 2.47 2.3zM362.87 282.53l-32.2 8.89c-.3-.21-.57-.43-.8-.66l30.47-8.41c.85.05 1.7.11 2.53.18zM373.64 284.32l-35.87 9.9c-.56-.14-1.1-.28-1.62-.43l35.83-9.89c.58.14 1.13.28 1.66.42z"/><path class="st10" d="M358.78 292.91v1.2h-5.54v-1.15c-3.93-.06-7.74-.36-10.1-.76l2.99-1.87c2.59.42 6.05.7 9.08.7 2.63 0 3.58-.15 3.58-.41 0-.95-15.21-.18-15.21-3.02 0-1.23 3.22-2.26 9.67-2.51v-1.18h5.54v1.16c2.91.08 5.74.28 7.98.63l-2.79 1.85a55.29 55.29 0 00-7.66-.56c-2.71 0-3.58.22-3.58.48 0 .91 15.21.15 15.21 2.95-.02 1.17-3.08 2.19-9.17 2.49z"/><path class="st12" d="M358.62 292.5v1.2h-5.54v-1.15c-3.93-.07-7.74-.36-10.1-.76l2.99-1.87c2.59.42 6.05.7 9.08.7 2.63 0 3.58-.15 3.58-.41 0-.95-15.21-.18-15.21-3.02 0-1.23 3.22-2.26 9.67-2.51v-1.18h5.54v1.16c2.91.08 5.74.28 7.98.63l-2.79 1.86a55.29 55.29 0 00-7.66-.56c-2.71 0-3.58.22-3.58.48 0 .91 15.21.15 15.21 2.95-.01 1.17-3.08 2.19-9.17 2.48z"/></g><g><path class="st6" d="M390.05 284.6v.09c0 1.11-.61 2.17-1.73 3.16-.27.24-.58.48-.91.71-.93.65-2.09 1.27-3.45 1.84-.29.12-.6.25-.91.36-1.05.4-2.21.78-3.45 1.13-.3.08-.6.17-.91.25-1.09.28-2.24.54-3.45.78-.3.06-.6.12-.91.17-1.11.21-2.26.39-3.45.55l-.91.12c-1.12.14-2.27.27-3.45.37-.3.03-.6.05-.91.08-1.13.09-2.28.16-3.45.22-.3.01-.6.03-.91.04-1.13.04-2.28.07-3.45.07H356.89c-1.17 0-2.32-.02-3.45-.06-.3-.01-.61-.02-.91-.04-.86-.04-1.71-.08-2.55-.14l-.89-.06c-.3-.02-.61-.05-.91-.07-1.18-.1-2.33-.22-3.45-.36l-.91-.12c-.71-.1-1.41-.2-2.1-.31-.46-.07-.91-.15-1.35-.23-.31-.06-.61-.11-.91-.17-1.21-.23-2.36-.49-3.45-.76-.22-.05-.43-.11-.64-.17-.09-.02-.18-.05-.27-.07-.49-.13-.97-.27-1.44-.42-.7-.22-1.38-.44-2.01-.68-.31-.12-.62-.23-.91-.35-1.16-.47-2.19-.98-3.06-1.51-.13-.08-.27-.17-.39-.25-.16-.1-.31-.21-.46-.31-.16-.12-.31-.23-.46-.35-1.32-1.07-2.03-2.22-2.03-3.42 0-.08 0-.17.01-.25v-6.82h16.01l3.45-.01h18.35l3.45-.01h18.35l3.45-.01h2.62l.02 7.01z"/><path class="st10" d="M327.28 277.61v11.16c-.16-.1-.31-.21-.46-.31-.16-.12-.31-.23-.46-.35v-10.5h.92zM331.64 277.6v13.29c-.31-.12-.62-.23-.91-.35V277.6h.91zM336 277.6v14.63c-.22-.05-.43-.11-.64-.17-.09-.02-.18-.05-.27-.07V277.6h.91zM340.36 277.59v15.57c-.31-.06-.61-.11-.91-.17v-15.4h.91zM344.72 277.58v16.23l-.91-.12v-16.11h.91zM349.08 277.58v16.67c-.3-.02-.61-.05-.91-.07v-16.6h.91zM353.44 277.57v16.92c-.3-.01-.61-.02-.91-.04v-16.88h.91zM357.8 277.56v16.98H356.89v-16.98h.91zM362.16 277.56v16.88c-.3.01-.6.03-.91.04v-16.92h.91zM366.52 277.55v16.6c-.3.03-.6.05-.91.08v-16.67l.91-.01zM370.88 277.55v16.11l-.91.12v-16.23h.91zM375.24 277.54v15.39c-.3.06-.6.12-.91.17v-15.56h.91zM379.6 277.53v14.37c-.3.08-.6.17-.91.25v-14.61l.91-.01zM383.96 277.53v12.88c-.29.12-.6.25-.91.36v-13.24h.91zM388.32 277.52v10.33c-.27.24-.58.48-.91.71v-11.04h.91z"/><g><path class="st12" d="M390.04 277.61c0 5.01-14.7 9.07-32.85 9.07-2.48 0-4.89-.07-7.22-.22-2.92-.18-5.69-.47-8.26-.85a71.19 71.19 0 01-6.35-1.22c-.59-.15-1.16-.3-1.71-.45-2.41-.68-4.44-1.47-5.98-2.34-.3-.17-.58-.34-.85-.52-1.6-1.07-2.49-2.24-2.49-3.47 0-.11.01-.22.03-.34.64-4.85 15.09-8.73 32.82-8.73 4.36 0 8.53.24 12.34.66.74.08 1.46.17 2.17.27 3.09.42 5.91.97 8.36 1.63.54.14 1.06.29 1.56.45 1.79.55 3.34 1.16 4.6 1.82 1.3.68 2.3 1.41 2.95 2.17.47.56.76 1.14.84 1.73.03.11.04.22.04.34z"/><path class="st1" d="M389.18 275.53l-39.2 10.92c-2.92-.18-5.69-.47-8.26-.85l44.51-12.25c1.3.69 2.3 1.42 2.95 2.18zM371.7 269.47l-44.01 12.12c-.3-.17-.58-.34-.85-.52l42.69-11.88c.73.09 1.46.18 2.17.28zM381.62 271.54l-46.25 12.84c-.59-.15-1.16-.3-1.71-.45l46.4-12.84c.54.15 1.06.3 1.56.45z"/><path class="st10" d="M383.45 277.61c0 .11-.01.22-.03.33-.63 3.84-12.15 6.91-26.23 6.91-14.07 0-25.59-3.07-26.23-6.91-.01-.11-.03-.22-.03-.33 0-4 11.78-7.25 26.25-7.25 14.49 0 26.27 3.25 26.27 7.25z"/><path class="st6" d="M383.42 277.94c-.63 3.84-12.15 6.91-26.23 6.91h-.94a88.17 88.17 0 01-8.91-.52c-2.77-.31-5.3-.75-7.51-1.29-.56-.14-1.1-.28-1.62-.43-2.35-.68-4.23-1.49-5.49-2.38-.3-.21-.57-.43-.8-.65-.54-.53-.87-1.07-.96-1.64.63-3.84 12.15-6.92 26.23-6.92 1.78 0 3.52.05 5.21.14.86.05 1.7.11 2.53.18 3.38.29 6.47.76 9.12 1.37.57.13 1.13.27 1.66.42 2.06.57 3.79 1.23 5.08 1.96 1.26.71 2.11 1.49 2.47 2.3.08.18.13.37.16.55z"/><path class="st15" d="M383.26 277.39l-27 7.45a88.17 88.17 0 01-8.91-.52l33.44-9.23c1.26.71 2.11 1.49 2.47 2.3zM364.93 271.34l-32.2 8.89c-.3-.21-.57-.43-.8-.65l30.47-8.41c.86.04 1.7.1 2.53.17zM375.71 273.14l-35.87 9.9c-.56-.14-1.1-.28-1.62-.43l35.83-9.89c.57.13 1.13.27 1.66.42z"/><path class="st10" d="M360.85 281.72v1.2h-5.54v-1.15c-3.93-.07-7.74-.36-10.1-.76l2.99-1.87c2.59.42 6.05.69 9.08.69 2.63 0 3.58-.15 3.58-.41 0-.95-15.21-.18-15.21-3.02 0-1.23 3.22-2.26 9.67-2.51v-1.18h5.54v1.16c2.91.08 5.74.28 7.98.63l-2.79 1.85a55.18 55.18 0 00-7.66-.56c-2.71 0-3.58.22-3.58.48 0 .91 15.21.15 15.21 2.95-.02 1.18-3.08 2.2-9.17 2.5z"/><path class="st12" d="M360.68 281.32v1.2h-5.54v-1.15c-3.93-.07-7.74-.36-10.1-.76l2.99-1.87c2.59.42 6.05.69 9.08.69 2.63 0 3.58-.15 3.58-.41 0-.96-15.21-.19-15.21-3.02 0-1.23 3.22-2.26 9.67-2.51v-1.18h5.54v1.16c2.91.08 5.74.28 7.98.63l-2.79 1.85a55.29 55.29 0 00-7.66-.56c-2.71 0-3.58.22-3.58.48 0 .91 15.21.15 15.21 2.95-.01 1.18-3.08 2.2-9.17 2.5z"/></g></g><g><path class="st6" d="M389.74 273.41v.09c0 1.11-.61 2.17-1.73 3.16-.27.24-.58.48-.91.71-.93.65-2.09 1.27-3.45 1.84-.29.12-.6.25-.91.36-1.05.4-2.21.78-3.45 1.13-.3.08-.6.17-.91.25-1.09.28-2.24.55-3.45.79-.3.06-.6.12-.91.17-1.11.2-2.26.39-3.45.55l-.91.12c-1.12.14-2.27.26-3.45.37-.3.03-.61.05-.91.08-1.13.09-2.28.16-3.45.21-.3.01-.61.03-.91.04-1.13.04-2.28.07-3.45.07H356.58c-1.17 0-2.32-.02-3.45-.06-.31-.01-.61-.02-.91-.04-.86-.04-1.72-.08-2.56-.14l-.89-.06c-.31-.02-.61-.05-.91-.07-1.18-.1-2.33-.22-3.45-.36l-.91-.12c-.71-.1-1.41-.2-2.1-.31-.46-.07-.91-.15-1.35-.23-.31-.06-.61-.11-.91-.17-1.21-.23-2.36-.49-3.45-.77-.22-.05-.43-.11-.64-.17-.09-.02-.18-.05-.27-.07-.49-.13-.97-.27-1.44-.42-.7-.22-1.38-.44-2.01-.68-.31-.12-.62-.23-.91-.35-1.16-.47-2.19-.98-3.06-1.51-.13-.08-.27-.16-.39-.25-.16-.11-.31-.21-.45-.32-.16-.11-.31-.23-.46-.35-1.32-1.07-2.03-2.22-2.03-3.42 0-.08 0-.17.01-.25v-6.82h16.01l3.45-.01h.91l3.45-.01H383.65l3.45-.01h2.63l.01 7.03z"/><path class="st10" d="M326.98 266.42v11.16c-.16-.11-.31-.21-.45-.32-.16-.11-.31-.23-.46-.35v-10.5l.91.01zM331.34 266.41v13.29c-.31-.12-.62-.23-.91-.35v-12.93l.91-.01zM335.7 266.41v14.63c-.22-.05-.43-.11-.64-.17-.09-.02-.18-.05-.27-.07v-14.39h.91zM340.06 266.4v15.57c-.31-.06-.61-.11-.91-.17v-15.4h.91zM344.42 266.4v16.23l-.91-.12V266.4h.91zM348.78 266.39v16.67c-.31-.02-.61-.05-.91-.07v-16.6h.91zM353.14 266.38v16.92c-.31-.01-.61-.02-.91-.04v-16.88h.91zM357.5 266.38v16.99H356.59v-16.98l.91-.01zM361.86 266.37v16.88c-.3.01-.61.03-.91.04v-16.92h.91zM366.22 266.37v16.59c-.3.03-.61.05-.91.08v-16.67h.91zM370.58 266.36v16.11l-.91.12v-16.23h.91zM374.94 266.35v15.39c-.3.06-.6.12-.91.17v-15.56h.91zM379.3 266.35v14.37c-.3.08-.6.17-.91.25v-14.61l.91-.01zM383.66 266.34v12.88c-.29.12-.6.25-.91.36v-13.24h.91zM388.02 266.33v10.33c-.27.24-.58.48-.91.71v-11.04h.91z"/><g><path class="st12" d="M389.74 266.42c0 5.01-14.7 9.07-32.85 9.07-2.48 0-4.89-.08-7.21-.22-2.92-.18-5.69-.47-8.26-.85a71.19 71.19 0 01-6.35-1.22c-.59-.14-1.16-.29-1.71-.45-2.41-.68-4.44-1.47-5.98-2.34-.3-.17-.58-.34-.84-.52-1.6-1.07-2.49-2.24-2.49-3.47 0-.11.01-.22.03-.34.64-4.85 15.09-8.73 32.82-8.73 4.36 0 8.53.23 12.34.66.74.08 1.46.17 2.17.27 3.09.42 5.91.97 8.36 1.63.54.15 1.06.29 1.56.45 1.79.55 3.34 1.16 4.6 1.82 1.3.68 2.31 1.41 2.95 2.18.47.56.76 1.14.84 1.73.01.1.02.22.02.33z"/><path class="st1" d="M388.88 264.35l-39.2 10.92c-2.92-.18-5.69-.47-8.26-.85l44.51-12.25c1.3.68 2.3 1.41 2.95 2.18zM371.4 258.28l-44.02 12.12c-.3-.17-.58-.34-.84-.52L369.23 258c.74.09 1.46.18 2.17.28zM381.32 260.36l-46.25 12.84c-.59-.14-1.16-.29-1.71-.45l46.4-12.84c.54.14 1.06.29 1.56.45z"/><path class="st10" d="M383.15 266.42c0 .11-.01.22-.03.33-.63 3.84-12.15 6.91-26.23 6.91-14.07 0-25.59-3.07-26.23-6.91-.01-.11-.03-.22-.03-.33 0-4 11.78-7.25 26.25-7.25 14.49 0 26.27 3.25 26.27 7.25z"/><path class="st6" d="M383.12 266.75c-.63 3.84-12.15 6.91-26.23 6.91h-.94a88.17 88.17 0 01-8.91-.52c-2.77-.31-5.3-.75-7.51-1.28-.56-.14-1.1-.28-1.62-.43-2.35-.68-4.23-1.49-5.49-2.38-.3-.21-.57-.43-.8-.66-.54-.52-.87-1.07-.96-1.64.63-3.84 12.15-6.92 26.23-6.92 1.78 0 3.52.05 5.2.14.86.05 1.7.11 2.53.18 3.38.29 6.47.76 9.12 1.38.57.13 1.13.27 1.66.42 2.06.57 3.79 1.23 5.08 1.96 1.26.71 2.11 1.49 2.47 2.3.09.18.14.36.17.54z"/><path class="st15" d="M382.96 266.21l-27 7.45a88.17 88.17 0 01-8.91-.52l33.44-9.23c1.26.71 2.11 1.48 2.47 2.3zM364.63 260.16l-32.2 8.89c-.3-.21-.57-.43-.8-.66l30.47-8.41c.86.05 1.7.1 2.53.18zM375.41 261.95l-35.87 9.9c-.56-.14-1.1-.28-1.62-.43l35.83-9.89c.57.13 1.12.27 1.66.42z"/><path class="st10" d="M360.54 270.53v1.2H355v-1.15c-3.93-.06-7.74-.36-10.1-.76l2.99-1.87c2.59.42 6.05.69 9.08.69 2.63 0 3.58-.15 3.58-.41 0-.95-15.21-.18-15.21-3.02 0-1.23 3.22-2.26 9.67-2.51v-1.18h5.54v1.16c2.91.08 5.74.28 7.98.63l-2.79 1.85a55.29 55.29 0 00-7.66-.56c-2.71 0-3.58.22-3.58.48 0 .91 15.21.15 15.21 2.95-.01 1.19-3.08 2.21-9.17 2.5z"/><path class="st12" d="M360.38 270.13v1.2h-5.54v-1.15c-3.93-.07-7.74-.36-10.1-.76l2.99-1.87c2.59.42 6.05.69 9.08.69 2.63 0 3.58-.15 3.58-.41 0-.95-15.21-.18-15.21-3.02 0-1.23 3.22-2.26 9.67-2.51v-1.18h5.54v1.16c2.91.08 5.74.28 7.98.63l-2.79 1.85a55.29 55.29 0 00-7.66-.56c-2.71 0-3.58.22-3.58.48 0 .91 15.21.15 15.21 2.95-.01 1.19-3.08 2.21-9.17 2.5z"/></g></g><g><path class="st6" d="M388.11 263.4v.09c0 1.11-.61 2.17-1.73 3.16-.27.24-.58.48-.91.71-.93.65-2.09 1.27-3.45 1.84-.29.12-.6.25-.91.36-1.05.4-2.21.78-3.45 1.13-.3.08-.6.17-.91.25-1.09.28-2.24.55-3.45.78-.3.06-.6.12-.91.17-1.11.2-2.26.39-3.45.55l-.91.12c-1.12.14-2.27.27-3.45.37-.3.03-.61.05-.91.08-1.13.09-2.28.16-3.45.21-.3.01-.6.03-.91.04-1.13.04-2.28.07-3.45.07H354.95c-1.17 0-2.32-.02-3.45-.06-.31-.01-.61-.02-.91-.04-.86-.04-1.71-.09-2.55-.14l-.89-.06c-.3-.02-.61-.05-.91-.07-1.18-.1-2.33-.22-3.45-.36l-.91-.12c-.71-.09-1.41-.2-2.1-.31-.46-.07-.91-.15-1.35-.23-.31-.05-.61-.11-.91-.17-1.21-.23-2.36-.49-3.45-.77-.22-.05-.43-.11-.64-.17-.09-.02-.18-.05-.27-.07-.49-.13-.97-.27-1.44-.42-.71-.22-1.38-.45-2.01-.68-.31-.12-.62-.23-.91-.35-1.16-.47-2.19-.98-3.06-1.51-.13-.08-.26-.16-.39-.25-.16-.1-.31-.21-.46-.31-.16-.11-.31-.23-.46-.35-1.32-1.07-2.03-2.22-2.03-3.42 0-.08 0-.17.01-.25v-6.82h20.37l3.45-.01H360.22l3.45-.01h.91l3.45-.01H388.09l.02 7.03z"/><path class="st10" d="M325.34 256.42v11.16c-.16-.1-.31-.21-.46-.31-.16-.11-.31-.23-.46-.35v-10.5h.92zM329.7 256.41v13.29c-.31-.12-.62-.23-.91-.35v-12.93l.91-.01zM334.06 256.4v14.63c-.22-.05-.43-.11-.64-.17-.09-.02-.18-.05-.27-.07V256.4h.91zM338.43 256.4v15.57c-.31-.05-.61-.11-.91-.17v-15.4h.91zM342.78 256.39v16.23l-.91-.12v-16.11h.91zM347.14 256.38v16.67c-.3-.02-.61-.05-.91-.07v-16.59l.91-.01zM351.5 256.38v16.92c-.31-.01-.61-.02-.91-.04v-16.88h.91zM355.86 256.37v16.99H354.95v-16.99h.91zM360.22 256.37v16.88c-.3.01-.6.03-.91.04v-16.92h.91zM364.58 256.36v16.6c-.3.03-.61.05-.91.08v-16.67l.91-.01zM368.94 256.35v16.11l-.91.12v-16.23h.91zM373.3 256.35v15.39c-.3.06-.6.12-.91.17v-15.56h.91zM377.66 256.34v14.37c-.3.08-.6.17-.91.25v-14.61l.91-.01zM382.02 256.34v12.88c-.29.12-.6.25-.91.36v-13.24h.91zM386.38 256.33v10.33c-.27.24-.58.48-.91.71v-11.04h.91z"/><g><path class="st12" d="M388.1 256.41c0 5.01-14.7 9.07-32.85 9.07-2.48 0-4.89-.08-7.22-.22-2.92-.18-5.69-.47-8.26-.85a71.19 71.19 0 01-6.35-1.22c-.59-.14-1.16-.29-1.71-.45-2.42-.68-4.44-1.48-5.98-2.34-.3-.17-.58-.34-.85-.52-1.6-1.07-2.49-2.24-2.49-3.47 0-.11.01-.22.03-.34.64-4.85 15.09-8.73 32.82-8.73 4.36 0 8.53.23 12.34.66.74.08 1.46.17 2.17.27 3.09.42 5.91.97 8.36 1.63.54.14 1.06.29 1.56.45 1.79.55 3.34 1.16 4.6 1.82 1.3.68 2.3 1.41 2.95 2.18.47.56.76 1.14.84 1.73.04.11.04.22.04.33z"/><path class="st1" d="M387.24 254.34l-39.2 10.92c-2.92-.18-5.69-.47-8.26-.85l44.51-12.25c1.3.68 2.3 1.41 2.95 2.18zM369.76 248.27l-44.02 12.12c-.3-.17-.58-.34-.85-.52l42.69-11.88c.75.1 1.47.19 2.18.28zM379.69 250.35l-46.25 12.84c-.59-.14-1.16-.29-1.71-.45l46.4-12.84c.53.15 1.05.29 1.56.45z"/><path class="st10" d="M381.51 256.41c0 .11-.01.22-.03.33-.63 3.84-12.15 6.92-26.23 6.92-14.07 0-25.59-3.07-26.23-6.92-.01-.11-.02-.22-.02-.33 0-4 11.78-7.25 26.25-7.25 14.48 0 26.26 3.26 26.26 7.25z"/><path class="st6" d="M381.48 256.75c-.63 3.84-12.15 6.92-26.23 6.92-.31 0-.63 0-.94-.01a88.17 88.17 0 01-8.91-.52c-2.77-.31-5.3-.75-7.51-1.28-.56-.14-1.1-.28-1.62-.43-2.35-.68-4.23-1.49-5.49-2.38-.3-.21-.57-.43-.8-.66-.54-.52-.87-1.07-.96-1.64.63-3.84 12.15-6.92 26.23-6.92 1.78 0 3.52.05 5.2.14.86.05 1.7.11 2.53.18 3.38.29 6.47.76 9.12 1.37.57.13 1.13.27 1.66.42 2.06.57 3.79 1.23 5.08 1.95 1.26.71 2.11 1.49 2.47 2.3.09.19.15.37.17.56z"/><path class="st15" d="M381.32 256.2l-27 7.45a88.17 88.17 0 01-8.91-.52l33.44-9.23c1.26.71 2.11 1.49 2.47 2.3zM362.99 250.15l-32.2 8.89c-.3-.21-.57-.43-.8-.66l30.47-8.41c.86.05 1.71.11 2.53.18zM373.77 251.94l-35.87 9.9c-.56-.14-1.1-.28-1.62-.43l35.83-9.89c.58.14 1.13.28 1.66.42z"/></g></g></g></g><g><path class="st16" d="M105.6 141.4l1.44 4.27c-4.53 2.58-15.96 8.65-21.05 10.47-1.51.54-3.63 1.21-6.03 1.94-.92.28-1.88.56-2.86.85-.85.25-1.72.5-2.59.75l-.12.03c-1.16.13-2.63.29-4.3.46l.01-6.81 2.75-.74 1.62-.44 2.28-.61 5-1.35c3.74-2.23 20.03-6.86 23.85-8.82z"/><path class="st16" d="M112.04 138.81c.12-.05 1.62-.58 2.06.02.46.63-.07 1.27-.07 1.27s1.1.6 1.13 1.22c.03.62-.5 1.05-.5 1.05s.71.34.68.93c-.02.59-.85 1.45-2.08 1.76-1.09.28-1.64.05-1.74 0-.01-.01-.02-.01-.02-.01s-.2.07-.56.19c-.59.19-1.61.5-2.8.76-1.9.41-4.26-2.13-4.43-3.77 0 0 .7-2.2 1.5-3.47s1.38-1.57 2.35-1.44c.97.12 1.92.44 2.13.4.21-.03 5.15-2.53 6.28-2.21 1.1.31-3.72 3.17-3.93 3.3z"/><path class="st17" d="M106.69 141.02c-.04 0-.09-.01-.13-.03a.265.265 0 01-.11-.36l.6-1.08c.04-.06.1-.11.17-.13.07-.02.15 0 .21.04.01.01 1.24.78 2.36.5.34-.08.58-.22.67-.4.1-.2.02-.42.02-.42-.06-.13.01-.29.14-.34.14-.05.29.01.35.14.02.04.18.44-.03.85-.17.33-.51.56-1.02.68-1.03.25-2.07-.19-2.53-.43l-.47.84c-.04.09-.14.14-.23.14z"/><path class="st17" d="M111.52 145.06c-.01-.01-.02-.01-.02-.01s-.2.07-.56.19c-.47-.54-.51-1.19-.54-1.73-.03-.47-.05-.88-.31-1.18-.26-.31-.37-.65-.39-.97-.02-.31.04-.61.12-.86.03-.09.06-.17.09-.25.08-.19.15-.31.16-.32.08-.12.24-.17.37-.09.13.07.17.23.09.36l-.03.06c-.08.14-.26.54-.26.97 0 .26.07.53.27.77.37.43.4.97.43 1.49.04.58.07 1.14.58 1.57z"/><path class="st17" d="M107.77 143.12c-.1 0-.2-.06-.24-.15a.259.259 0 01.13-.35c.02-.01 1.61-.76 1.77-2.24a.27.27 0 01.3-.23c.15.01.25.14.24.29-.19 1.78-2 2.62-2.08 2.66-.04.01-.08.02-.12.02z"/><path class="st4" d="M102.23 142.74c-10.1 3.32-17.72 5.52-25.6 7.4-14.12 3.35-21.63 1.38-21.63 1.38l5.3 9.47.94 1.68c1.55.41 3.36.44 5.21.27 5.28-.48 10.78-2.66 10.78-2.66 14.47-5.5 23.93-9.9 27.85-12.54l-2.85-5z"/><path class="st18" d="M101.97 142.04l-2.43 1.11 3.33 6.21 2.51-1.4zM66.45 162.95c-1.84.17-3.66.13-5.21-.27L60.3 161c.2-.85.7-1.54 1.68-1.91.01-.01 1.25 2.46 4.47 3.86z"/><g><path class="st16" d="M25.16 281.25l-4.14 5.38s.75 2.41 3.82 4.26l4.95-6.19-4.63-3.45z"/><path class="st6" d="M24.16 289.22s1.94-.41 2.6.25c.66.65 2.32 9.5 3.88 11.44 1.56 1.94-.01 2.97-.97 3.36-.96.39-14.67-12.94-14.67-12.94s3.39-4.55 5.03-5.44c1.63-.88 2.4 2.39 4.13 3.33z"/></g><g><path class="st16" d="M50.55 290.49l.63 6.69s2.22 1.3 5.77.68l-.58-7.82-5.82.45z"/><path class="st6" d="M55.69 296.92s1.21-1.63 2.19-1.57c.98.05 8.63 5.8 11.23 6.24 2.6.45 2.12 2.31 1.66 3.26-.46.95-20.57.41-20.57.41s-.74-6.31-.11-8.11c.64-1.8 3.58.22 5.6-.23z"/></g><g><path class="st19" d="M46.69 217.85l-4.18 33.63s-3.75 4.95-7.33 11.28c-3 5.31-10.99 19.1-10.99 19.1l4.83 3.58 26.49-26.68 7.05-41.24-15.87.33z"/><path class="st7" d="M30.22 285.36c-.43 1.06-1.25 1.78-2.19 2.39l-5.61-4.61c.47-.97 1.11-1.8 1.91-2.53l5.89 4.75z"/></g><g><path class="st7" d="M25.3 219.24s7.46 17.83 17.15 31.73c0 0 1.45 13.53 3.92 20.73 1.08 3.15 3.18 18.09 3.18 18.09l7.35-.32-1.9-41.54-7.78-30.09-21.92 1.4z"/><path class="st11" d="M57.6 289.22c.47 1.24.34 2.47 0 3.71l-8.51.23a9.245 9.245 0 01-.35-3.62l8.86-.32z"/></g><g><path class="st4" d="M63.67 216.93c0 1.46 0 2.62-.01 3.4-3.56.93-7.12 1.61-10.68 2.02l-.28.03-.48.06c-.04 0-.08.01-.12.01-.62.07-1.23.12-1.85.17-3.06.24-6.12.3-9.18.16-.27-.01-.53-.03-.8-.04-.24-.01-.48-.03-.72-.04-.11 0-.22-.01-.33-.02-.2-.01-.41-.03-.61-.04-4.5-.36-8.99-1.12-13.49-2.3-.02-1.72-.05-5.23-.05-9.75v-.76c-.01-4.99.01-11.12.07-17.42.01-.5.01-1 .02-1.5 0-.58.01-1.16.02-1.74v-.29c0-.14.01-.27.01-.41 0-.27.01-.55.01-.82.01-.4.01-.8.02-1.19 0-.3.01-.6.01-.91l.03-1.8c.22-12.52.65-24.03 1.48-26.96.08-.27.16-.47.24-.58a5.463 5.463 0 01.86-.93c1.38-1.23 3.77-2.67 6.2-4.03.28-.16.57-.31.85-.47.04-.02 6.59-2.17 6.64-2.2l6.85.47c.82.47 7.31 2.61 8.1 3.09.24.14.47.29.7.43 1.86 1.17 3.45 2.33 4.14 3.31 1 1.43 1.6 14.21 1.95 28.12.01.32.02.64.02.96.04 1.47.07 2.95.1 4.43.03 1.46.06 2.92.08 4.36.04 2.37.08 4.7.1 6.94 0 .25.01.51.01.76.03 2.19.05 4.28.06 6.24 0 .26 0 .51.01.76.02 2.94.04 5.54.04 7.63-.02.3-.02.58-.02.85z"/><path class="st3" d="M51.08 168.46l7.85-.44s.29 9.26-3.88 8.98c-4.18-.29-3.97-8.54-3.97-8.54z"/><path class="st18" d="M31.91 173.08c0-.33-.43-.48-.64-.21-2.75 3.53-4.41 7.37-5.4 10.41-.25.78-.47 1.54-.66 2.26 0 .3-.01.6-.01.91-.01.4-.01.79-.02 1.19-.01.27-.01.55-.01.82 0 .14 0 .27-.01.41v.29c.26-1.52.69-3.51 1.39-5.7.96-2.97 2.59-6.73 5.28-10.18.05-.05.08-.13.08-.2zM33.3 209.42s.01 0 0 0c7.4-.03 13.72-3.3 17.71-6.05 4.32-2.96 6.94-5.97 6.97-6a.34.34 0 00-.04-.49.37.37 0 00-.5.04c-.02.03-2.6 2.98-6.85 5.89-3.91 2.68-10.08 5.88-17.29 5.91-.2 0-.35.16-.35.35 0 .2.16.35.35.35zM41.02 211.87c6.42 0 12.82-3.56 13.12-3.72.17-.1.23-.31.13-.47a.369.369 0 00-.49-.13c-.08.04-7.61 4.23-14.29 3.55-.2-.02-.37.12-.39.31-.02.19.12.36.32.38.52.05 1.06.08 1.6.08z"/><path class="st9" d="M51.45 200.55l-3.37 10.11-4.7-9.05 1.12-39.55.04-1.49 1.83-.25.26 2.01z"/><path fill="#ededed" d="M46.63 162.33l-.88 1.06-1.25-1.33.04-1.49 1.83-.25z"/><path class="st9" d="M42.2 158.47l3.25 3.41 2.65-4.21-2.32-3.85z"/><path class="st3" d="M40.48 148.2l-1.03.71c-.28.2-.56.4-.82.63-.79.68-1.06 1.14-.86 2.33.03.18.07.34.12.47l1.96 9.18 5.94-7.69c-.01-.01-4.31-1.5-5.31-5.63z"/><path class="st3" d="M48.31 148.57s2.72 2.5 1.92 5.49l-1.24 5.08-3.2-5.31c-.01-.01 2.29-1.36 2.52-5.26z"/></g><g><path class="st16" d="M12.8 227.71c-.17 1.78 2.06.81 1.43-2.79-.63-3.6 1.16-6.86 1.93-6.76.77.11-.64 3.93.05 5.31.68 1.38 1.57-1.3 2.45-2.93.91-1.69.86-5.37.44-8s4.49-18.6 4.51-23.23l.6-1.96 2.19-7.18 3.42-11.25s-2.05-8.52-5.51-7.78c0 0-1.83 5.93-3.79 12.62-.33 1.13-.67 2.29-1 3.45-1.39 4.85-2.7 9.64-3.31 12.48-1.61 7.5-1.73 23.09-1.73 23.09s-2.84 5.73-2.9 8.28c-.08 2.71 1.39 4.87 1.22 6.65z"/><path class="st4" d="M27.31 156.08c-.06.13-.24-.27-.35-.03-.4.9-2.18 3.12-3.06 5.28-.11.28-.23.56-.35.86-1.27 3.16-8.23 23.96-9.66 41.71l6.79 1.24c2.15-11.61 3.5-15.12 4.82-20.85.68-2.23 1.39-4.38 2.06-6.34v-.02c.27-.79.53-1.55.78-2.27 0-.01.01-.03.01-.04.09-.25.17-.51.26-.75.99-2.92 1.76-5.24 1.98-6.6.62-3.64-1-10.78-3.28-12.19z"/><path class="st18" d="M13.49 202.64l-.45 2.69 8.04 1.23.56-2.68z"/><path class="st19" d="M14.05 206.86s4.44-.32 6.33.99l-.4 2.53s-5.19-.57-6.41-.5c.01 0-.11-2.5.48-3.02z"/><path class="st7" d="M16.29 208.56c0 1.16-.8 2.1-1.79 2.1s-1.79-.94-1.79-2.1c0-1.16.8-2.1 1.79-2.1s1.79.94 1.79 2.1z"/><path class="st11" d="M15.5 208.49c0 .85-.59 1.54-1.31 1.54-.72 0-1.31-.69-1.31-1.54 0-.85.59-1.53 1.31-1.53.73-.01 1.31.68 1.31 1.53z"/></g><g><path class="st7" d="M34.39 131.52c0 5.78 3.66 9.77 9.61 9.77 5.95 0 10.1-4.29 10.1-10.07s-3.52-10.16-9.47-10.16c-7.14 0-10.24 4.68-10.24 10.46z"/><path class="st7" d="M34.39 131.52s.69-4.37 0-6.63.03-2.51 1.57-2.93c1.54-.41.96-2.26 2.44-2.62 1.79-.44 2.44.67 3.81-.98 1.37-1.64 2.63-1.73 3.95-1.17 1.64.7 2.1.08 4.22-.22 2.14-.31 3.71 1.08 4.07 2.51.36 1.44-1.1 2.67-.49 3.7.6 1.03.67 4.35-.94 5.54-1.62 1.22-18.63 2.8-18.63 2.8z"/><path class="st17" d="M35.72 134.01s-1.65-2.14-2.88-.37.51 7 3.52 5.73l-.64-5.36z"/><path class="st21" d="M35.7 137.75c-.11 0-.21-.07-.24-.18-.47-1.62-2.19-2.27-2.2-2.28a.248.248 0 01-.15-.32c.05-.13.2-.19.33-.14.08.03 1.98.74 2.51 2.61.04.13-.04.27-.18.3-.02.01-.05.01-.07.01z"/><path class="st21" d="M33.96 136.94a.23.23 0 01-.14-.04.246.246 0 01-.08-.34c.01-.02.32-.47.95-.75.13-.06.28 0 .34.12.06.13 0 .27-.13.33-.49.21-.73.56-.73.57-.04.07-.12.11-.21.11z"/><path class="st17" d="M52.76 134.01s1.65-2.14 2.88-.37-.51 7-3.52 5.73l.64-5.36z"/><path class="st21" d="M52.78 137.75c.11 0 .21-.07.24-.18.47-1.62 2.19-2.27 2.21-2.28.13-.05.2-.19.15-.32a.254.254 0 00-.33-.14c-.08.03-1.98.74-2.51 2.61-.04.13.04.27.18.3.01.01.03.01.06.01z"/><path class="st21" d="M54.51 136.94c.05 0 .1-.01.14-.04.12-.07.15-.23.08-.34-.01-.02-.32-.47-.95-.75a.26.26 0 00-.34.12c-.06.13 0 .27.13.33.49.21.73.56.73.57.05.07.13.11.21.11z"/><path class="st16" d="M48.31 143.81v5.2s.72 4.87-3.35 4.84c-2.16-.02-4.48-4.29-4.48-4.29v-5.39l7.83-.36z"/><path class="st17" d="M48.31 143.81v2.31c-1.45 1.56-4.02 1.95-7.83 1.41v-3.35l7.83-.37z"/><path class="st16" d="M53.95 130.44c-.1 2.02-.3 4.55-.69 6.57-.1.5-.21.98-.34 1.41-1.13 3.83-3.94 10.41-11.83 7.67-3.48-1.21-5.1-4.98-5.82-8.82-.49-2.61-.56-5.24-.53-7.12.04-1.92 1.12-3.68 2.84-4.62 4.66-2.57 9.57-1.61 12.8-.4 2.25.84 3.68 2.98 3.57 5.31z"/><path class="st7" d="M41.34 134.32c0 .56-.29 1.01-.66 1.01-.36 0-.66-.45-.66-1.01s.29-1.01.66-1.01c.36 0 .66.45.66 1.01zM48.97 134.32c0 .56-.29 1.01-.66 1.01-.36 0-.66-.45-.66-1.01s.29-1.01.66-1.01c.36 0 .66.45.66 1.01zM50.1 131.22s-2.08-.8-3.67-.13l.16.86s2.35-.19 3.53.27c.1-.33.11-.66-.02-1zM38 131.22s2.07-.8 3.67-.13l-.16.86s-2.35-.19-3.53.27c-.09-.33-.11-.66.02-1z"/><g><path class="st17" d="M44.5 138.68c-.43.05-.87-.06-.94-.08a.248.248 0 01-.18-.3c.04-.13.18-.21.31-.17.24.06.8.14 1.02-.03.04-.03.1-.09.1-.24-.02-.87-.62-3.71-.63-3.74-.03-.14.06-.26.2-.29.14-.03.27.06.3.19.02.12.62 2.92.63 3.83.01.34-.15.54-.29.64-.14.11-.33.17-.52.19z"/></g><path class="st9" d="M41.02 140.16c.21 1.02.9 2.89 3.23 2.89s2.99-1.71 3.21-2.89h-6.44z"/><g><path class="st17" d="M44.05 144.58c.66 0 1.22-.32 1.24-.34.12-.07.16-.22.09-.34-.07-.12-.23-.15-.35-.08 0 0-.46.27-.98.27-.47 0-.92-.26-.92-.27-.12-.07-.28-.04-.35.08-.07.12-.04.27.08.34.02.02.57.34 1.19.34z"/></g><path class="st7" d="M53.68 134.06h-1.15c.13-1.12-.29-2.48-.64-3.39-.79-2.05.89-2.96-.47-3.99-1.36-1.03-4.73-.59-7.07-.66-2.36-.07-6.15-.04-7.07.17-.92.21-.42 1.7-.08 2.85.34 1.15-1.13 2.43-1.38 3.62-.07.34-.06.85 0 1.4h-.96c-.11-1.45-.13-2.81-.11-3.9.04-1.92 1.12-3.68 2.84-4.62 4.66-2.57 9.57-1.61 12.8-.4 2.24.84 3.68 2.98 3.57 5.31-.06 1.1-.15 2.36-.28 3.61z"/></g></g></svg>